<svg width="202" height="202" viewBox="0 0 202 202" fill="none" xmlns="http://www.w3.org/2000/svg">
<path d="M202 101C202 156.663 156.915 202 101 202C45.0848 202 0 156.663 0 101C0 45.0848 45.0848 0 101 0C156.663 0 202 45.0848 202 101Z" fill="white" fill-opacity="0.47"/>
<path d="M30.224 88.9104C30.7277 62.9677 52.3886 42.3144 78.5831 42.8181C104.526 43.3218 125.179 64.9827 124.675 91.1772C124.172 117.12 102.511 137.773 76.3162 137.269C50.1217 136.514 29.7202 114.853 30.224 88.9104Z" fill="white"/>
<path d="M34.758 88.9101C35.2618 65.4862 54.9076 46.5959 78.3316 47.3515C101.756 47.8552 120.646 67.5011 119.89 90.9251C119.386 114.601 99.7406 133.239 76.3166 132.484C52.8927 132.232 34.2543 112.586 34.758 88.9101Z" fill="#3F8ABC"/>
<path d="M96.9695 102.511C96.9695 91.6808 88.154 88.1546 80.5979 85.384L80.8498 71.2793C84.376 72.2868 87.3984 74.3017 90.169 76.3167L91.4284 77.0723L95.7102 68.7606L94.7027 68.005C89.9171 64.7307 85.3835 62.7157 80.8498 62.212V57.1746H76.568V61.9601C67.2488 62.4638 59.9446 68.7606 60.1964 77.0723C60.1964 87.1471 69.2638 90.6733 76.0643 93.4439L75.8124 109.312C71.2787 108.052 66.4932 104.778 63.4708 101.756L62.2114 100.496L56.9221 108.304L57.9296 109.06C63.2189 113.845 69.7675 116.868 75.8124 117.875V122.913H80.0942V118.127C88.4059 118.127 97.2214 112.082 96.9695 102.511ZM70.2712 77.0723C70.2712 73.2943 73.2937 70.7756 76.568 70.5237L76.3161 83.3691C73.0418 82.1097 70.2712 80.0948 70.2712 77.0723ZM80.3461 109.564L80.5979 94.9551C84.376 96.4663 87.1466 98.4813 87.1466 103.015C87.1466 107.297 83.6204 109.312 80.3461 109.564Z" fill="white"/>
<path d="M57.6789 56.9226C57.6789 56.9226 56.9233 57.6782 55.9158 58.9376C54.6565 60.1969 53.1453 62.2119 51.3822 64.4787C50.6266 65.7381 49.6191 66.9974 48.8635 68.5086C47.856 69.768 47.3522 71.5311 46.3448 73.0423C45.5891 74.8054 44.8335 76.3166 44.3298 78.0797C44.0779 78.8353 43.8261 79.8428 43.5742 80.8503C43.3223 81.8578 43.3223 82.6134 43.0704 83.6209C42.5667 85.384 42.5667 87.3989 42.3148 89.162C42.063 90.9251 42.3148 92.9401 42.3148 94.7032C42.5667 96.4662 42.8186 98.2293 43.0704 99.7406C43.0704 100.496 43.3223 101.252 43.5742 102.007C43.8261 102.763 44.0779 103.519 44.0779 104.274C44.5817 105.785 44.8335 107.045 45.3373 108.052C45.841 109.06 46.0929 110.067 46.3448 111.075C46.8485 112.838 47.3522 113.593 47.3522 113.593C47.3522 113.593 46.5966 112.838 45.5891 111.327C45.0854 110.571 44.3298 109.815 43.5742 108.808C42.8186 107.8 42.3148 106.541 41.5592 105.282C41.0555 103.77 40.048 102.511 39.5443 100.748C39.0405 98.985 38.2849 97.2219 38.033 95.2069C38.033 94.1994 37.7812 93.1919 37.7812 92.1844C37.5293 91.177 37.5293 90.1695 37.5293 89.162C37.7812 87.147 37.5293 84.8802 38.2849 82.8653C38.5368 81.8578 38.7886 80.8503 39.0405 79.8428C39.2924 78.8353 39.7961 77.8278 40.048 76.8204C40.2999 75.8129 40.8036 74.8054 41.3074 74.0498C41.8111 73.0423 42.3148 72.2867 42.8186 71.5311C43.8261 70.0199 44.8335 68.2568 46.0929 66.9974C47.1004 65.4862 48.3597 64.4787 49.6191 63.2194C50.6266 62.2119 51.8859 61.2044 52.8934 60.4488C53.9009 59.6932 54.9083 59.1894 55.664 58.6857C56.6714 57.4263 57.6789 56.9226 57.6789 56.9226Z" fill="white"/>
<path d="M96.2148 122.661C96.2148 122.661 96.9705 121.905 97.9779 120.646C99.2373 119.387 100.749 117.372 102.512 115.105C103.267 113.845 104.275 112.586 105.03 111.075C106.038 109.815 106.542 108.052 107.549 106.541C108.305 104.778 109.06 103.267 109.564 101.504C109.816 100.748 110.068 99.7406 110.32 98.7331C110.571 97.7257 110.571 96.97 110.823 95.9626C111.327 94.1995 111.327 92.1845 111.579 90.4214C111.831 88.6583 111.579 86.6434 111.579 84.8803C111.327 83.1172 111.075 81.3541 110.823 79.8429C110.823 79.0873 110.571 78.3316 110.32 77.576C110.068 76.8204 109.816 76.0648 109.816 75.3092C109.312 73.798 109.06 72.5386 108.556 71.5311C108.053 70.5237 107.801 69.5162 107.549 68.5087C107.045 66.7456 106.542 65.99 106.542 65.99C106.542 65.99 107.297 66.7456 108.305 68.2568C108.808 69.0124 109.564 69.768 110.32 70.7755C111.075 71.783 111.579 73.0424 112.335 74.3017C112.838 75.8129 113.846 77.0723 114.35 78.8354C114.853 80.5985 115.609 82.3616 115.861 84.3765C115.861 85.384 116.113 86.3915 116.113 87.399C116.364 88.4065 116.364 89.4139 116.364 90.4214C116.113 92.4364 116.364 94.7032 115.609 96.7182C115.357 97.7257 115.105 98.7331 114.853 99.7406C114.601 100.748 114.098 101.756 113.846 102.763C113.594 103.771 113.09 104.778 112.586 105.534C112.083 106.541 111.579 107.297 111.075 108.052C110.068 109.564 109.06 111.327 107.801 112.586C106.793 114.097 105.534 115.105 104.275 116.364C103.267 117.372 102.008 118.379 101 119.135C99.9929 119.89 99.2373 120.394 98.2298 120.898C97.2223 122.409 96.2148 122.661 96.2148 122.661Z" fill="#C7C7C7"/>
<path d="M64.4793 119.135C65.235 93.1921 86.6439 72.5387 112.838 73.0425C138.781 73.5462 159.434 95.2071 158.931 121.402C158.427 147.344 136.766 167.998 110.572 167.494C84.3771 166.738 63.9756 145.329 64.4793 119.135Z" fill="white"/>
<path d="M69.0131 119.387C69.5169 95.9627 89.1628 77.0724 112.587 77.8281C136.011 78.3318 154.901 97.9777 154.145 121.402C153.642 145.077 133.996 163.716 110.572 162.96C87.1478 162.456 68.5094 142.811 69.0131 119.387Z" fill="#3F8ABC"/>
<path d="M131.225 132.736C131.225 121.905 122.409 118.379 114.853 115.608L115.105 101.504C118.631 102.511 121.654 104.526 124.424 106.541L125.684 107.297L129.965 98.985L129.21 98.2294C124.424 94.955 119.89 92.9401 115.357 92.4363V87.3989H111.075V92.1845C101.756 92.6882 94.4516 98.985 94.7034 107.297C94.7034 117.371 103.771 120.898 110.571 123.668L110.319 139.536C105.786 138.277 101 135.002 97.9778 131.98L96.7184 130.721L91.1772 139.032L92.1847 139.788C97.474 144.573 104.023 147.596 110.068 148.603V153.641H114.349V148.855C122.661 148.603 131.477 142.307 131.225 132.736ZM104.526 107.549C104.526 103.771 107.549 101.252 110.823 101L110.571 113.845C107.297 112.334 104.526 110.319 104.526 107.549ZM114.601 139.788L114.853 125.179C118.631 126.691 121.402 128.706 121.402 133.239C121.402 137.773 117.876 139.536 114.601 139.788Z" fill="white"/>
<path d="M91.9326 87.147C91.9326 87.147 91.177 87.9026 90.1695 89.1619C88.9101 90.4213 87.3989 92.4362 85.6358 94.7031C84.8802 95.9624 83.8727 97.2218 83.1171 98.733C82.1096 99.9924 81.6059 101.755 80.5984 103.267C79.8428 105.03 79.0872 106.541 78.5835 108.304C78.3316 109.06 78.0797 110.067 77.8278 111.075C77.576 112.082 77.576 112.838 77.3241 113.845C76.8204 115.608 76.8204 117.623 76.5685 119.386C76.3166 121.149 76.5685 123.164 76.5685 124.928C76.8204 126.691 77.0722 128.454 77.3241 129.965C77.3241 130.721 77.576 131.476 77.8278 132.232C78.0797 132.987 78.3316 133.743 78.3316 134.499C78.8353 136.01 79.0872 137.269 79.5909 138.277C80.0947 139.284 80.3466 140.292 80.5984 141.299C81.1022 143.062 81.6059 143.818 81.6059 143.818C81.6059 143.818 80.8503 143.062 79.8428 141.551C79.3391 140.795 78.5835 140.04 77.8278 139.032C77.0722 138.025 76.5685 136.765 75.8129 135.506C75.3091 133.995 74.3017 132.736 73.7979 130.972C73.2942 129.209 72.5386 127.446 72.2867 125.431C72.2867 124.424 72.0348 123.416 72.0348 122.409C71.783 121.401 71.783 120.394 71.783 119.386C72.0348 117.371 71.783 115.105 72.5386 113.09C72.7904 112.082 73.0423 111.075 73.2942 110.067C73.5461 109.06 74.0498 108.052 74.3017 107.045C74.5535 106.037 75.0573 105.03 75.561 104.274C76.0648 103.267 76.5685 102.511 77.0722 101.755C78.0797 100.244 79.0872 98.4811 80.3466 97.2218C81.354 95.7106 82.6134 94.7031 83.8727 93.4437C84.8802 92.4362 86.1396 91.4288 87.1471 90.6732C88.1545 89.9176 89.162 89.4138 89.9176 88.9101C91.177 87.6507 91.9326 87.147 91.9326 87.147Z" fill="white"/>
<path d="M130.469 152.885C130.469 152.885 131.224 152.13 132.232 150.87C133.491 149.611 135.002 147.596 136.765 145.329C137.521 144.07 138.528 142.81 139.284 141.299C140.291 140.04 140.795 138.277 141.803 136.766C142.558 135.002 143.314 133.491 143.818 131.728C144.07 130.973 144.321 129.965 144.573 128.958C144.825 127.95 144.825 127.194 145.077 126.187C146.084 124.676 146.084 122.913 146.084 120.898C146.336 119.135 146.084 117.12 146.084 115.357C145.833 113.593 145.581 111.83 145.329 110.319C145.329 109.564 145.077 108.808 144.825 108.052C144.573 107.297 144.321 106.541 144.321 105.786C143.818 104.274 143.566 103.015 143.062 102.007C142.558 101 142.306 99.9925 142.055 98.985C141.551 97.2219 141.047 96.4663 141.047 96.4663C141.047 96.4663 141.803 97.2219 142.81 98.7331C143.314 99.4888 144.07 100.244 144.825 101.252C145.581 102.259 146.084 103.519 146.84 104.778C147.344 106.289 148.351 107.549 148.855 109.312C149.359 111.075 150.114 112.838 150.366 114.853C150.366 115.86 150.618 116.868 150.618 117.875C150.87 118.883 150.87 119.89 150.87 120.898C150.618 122.913 150.87 125.18 150.114 127.194C149.863 128.202 149.611 129.209 149.359 130.217C149.107 131.224 148.603 132.232 148.351 133.239C148.099 134.247 147.596 135.254 147.092 136.01C146.588 137.017 146.084 137.773 145.581 138.529C144.573 140.04 143.566 141.803 142.306 143.062C141.299 144.574 140.04 145.581 138.78 146.84C137.773 147.848 136.513 148.855 135.506 149.611C134.498 150.367 133.491 150.87 132.735 151.374C131.476 152.633 130.469 152.885 130.469 152.885Z" fill="white"/>
<path d="M77.324 80.5986C77.8277 54.656 99.4886 34.0026 125.683 34.5063C151.626 35.0101 172.279 56.6709 171.775 82.8654C171.02 108.808 149.359 129.461 123.416 128.706C97.4736 128.202 76.8202 106.541 77.324 80.5986Z" fill="white"/>
<path d="M81.8579 80.5986C82.3616 57.1746 102.007 38.2844 125.431 39.04C148.855 39.5437 167.494 59.1896 166.99 82.6135C166.486 106.289 146.84 124.928 123.416 124.172C99.9925 123.668 81.3541 104.023 81.8579 80.5986Z" fill="#3F8ABC"/>
<path d="M144.07 93.9477C144.07 83.1173 135.255 79.5911 127.698 76.8206L127.95 62.7158C131.476 63.7233 134.499 65.7383 137.27 67.7532L138.529 68.5088L142.811 60.1971L141.803 59.4415C137.018 56.1672 132.484 54.1522 127.95 53.6485V48.6111H123.669V53.3966C114.349 53.9004 107.045 60.1971 107.297 68.5088C107.297 78.5837 116.364 82.1098 123.165 84.8804L122.913 100.748C118.379 99.4889 113.594 96.2146 110.571 93.1921L109.312 91.9328L103.771 100.244L104.778 101C110.068 105.786 116.616 108.808 122.661 109.816V114.853H126.943V110.067C135.506 109.816 144.322 103.771 144.07 93.9477ZM117.372 68.7607C117.372 64.9827 120.394 62.464 123.669 62.2121L123.417 75.0575C120.142 73.7981 117.372 71.7831 117.372 68.7607ZM127.447 101L127.698 86.3916C131.476 87.9028 134.247 89.9178 134.247 94.4515C134.247 98.9851 130.721 100.748 127.447 101Z" fill="white"/>
<path d="M104.777 48.6111C104.777 48.6111 104.022 49.3667 103.014 50.626C101.755 51.8854 100.244 53.9004 98.4806 56.1672C97.7249 57.4265 96.7175 58.6859 95.9619 60.1971C94.9544 61.4565 94.4506 63.2196 93.4431 64.7308C92.6875 66.4939 91.9319 68.0051 91.4282 69.7682C91.1763 70.5238 90.9244 71.5313 90.6726 72.5388C90.4207 73.5462 90.4207 74.3019 90.1688 75.3093C89.6651 77.0724 89.6651 79.0874 89.4132 80.8505C89.1614 82.6136 89.4132 84.6285 89.4132 86.3916C89.6651 88.1547 89.917 89.9178 90.1688 91.429C90.1688 92.1847 90.4207 92.9403 90.6726 93.6959C90.9244 94.4515 91.1763 95.2071 91.1763 95.9627C91.6801 97.4739 91.9319 98.7333 92.4357 99.7408C92.9394 100.748 93.1913 101.756 93.4431 102.763C93.9469 104.526 94.4506 105.282 94.4506 105.282C94.4506 105.282 93.695 104.526 92.6875 103.015C92.1838 102.259 91.4282 101.504 90.6726 100.496C89.917 99.4889 89.4132 98.2295 88.6576 96.9702C88.1539 95.459 87.1464 94.1996 86.6427 92.4365C86.1389 90.6734 85.3833 88.9103 85.1314 86.8954C85.1314 85.8879 84.8796 84.8804 84.8796 83.8729C84.6277 82.8655 84.6277 81.858 84.6277 80.8505C84.8796 78.8355 84.6277 76.5687 85.3833 74.5537C85.6352 73.5463 85.887 72.5388 86.1389 71.5313C86.3908 70.5238 86.8945 69.5163 87.1464 68.5088C87.3983 67.5014 87.902 66.4939 88.4057 65.7383C88.9095 64.7308 89.4132 63.9752 89.917 63.2196C90.9244 61.7083 91.9319 59.9452 93.1913 58.6859C94.1988 57.1747 95.4581 56.1672 96.7175 54.9078C97.725 53.9004 98.9843 52.8929 99.9918 52.1373C100.999 51.3817 102.007 50.8779 102.762 50.3742C104.022 48.863 104.777 48.6111 104.777 48.6111Z" fill="white"/>
<path d="M143.315 114.349C143.315 114.349 144.071 113.594 145.078 112.334C146.337 111.075 147.849 109.06 149.612 106.793C150.367 105.534 151.375 104.274 152.13 102.763C153.138 101.504 153.642 99.7408 154.649 98.2296C155.405 96.4665 156.16 94.9553 156.664 93.1922C156.916 92.4366 157.168 91.4291 157.42 90.4216C157.672 89.4141 157.672 88.6585 157.923 87.651C158.427 85.8879 158.427 83.873 158.679 82.1099C158.931 80.3468 158.679 78.3318 158.679 76.5687C158.427 74.8057 158.175 73.0426 157.923 71.5313C157.923 70.7757 157.672 70.0201 157.42 69.2645C157.168 68.5089 156.916 67.7533 156.916 66.9977C156.412 65.4864 156.16 64.2271 155.657 63.2196C155.153 62.2121 154.901 61.2047 154.649 60.1972C154.145 58.4341 153.642 57.6785 153.642 57.6785C153.642 57.6785 154.397 58.4341 155.405 59.9453C155.908 60.7009 156.664 61.4565 157.42 62.464C158.175 63.4715 158.679 64.7308 159.435 65.9902C159.938 67.5014 160.946 68.7608 161.45 70.5239C161.953 72.2869 162.709 74.05 162.961 76.065C162.961 77.0725 163.213 78.08 163.213 79.0874C163.465 80.0949 163.465 81.1024 163.465 82.1099C163.213 84.1249 163.465 86.3917 162.709 88.4066C162.457 89.4141 162.205 90.4216 161.953 91.4291C161.701 92.4366 161.198 93.4441 160.946 94.4515C160.694 95.459 160.19 96.4665 159.686 97.2221C159.183 98.2296 158.679 98.9852 158.175 99.7408C157.168 101.252 156.16 103.015 154.901 104.274C153.893 105.786 152.634 106.793 151.375 108.053C150.367 109.06 149.108 110.068 148.1 110.823C147.093 111.579 146.086 112.082 145.33 112.586C144.322 113.846 143.315 114.349 143.315 114.349Z" fill="white"/>
</svg>
