<svg width="202" height="202" viewBox="0 0 202 202" fill="none" xmlns="http://www.w3.org/2000/svg">
<path d="M202 101C202 156.663 156.915 202 101 202C45.0848 202 0 156.663 0 101C0 45.3367 45.0848 0 101 0C156.663 0 202 45.0848 202 101Z" fill="white" fill-opacity="0.47"/>
<path d="M52.1856 111.848L31.5895 111.346L29.329 112.099L28.5754 112.601V113.103L35.1059 132.681L36.8641 137.951H47.4133L48.418 132.932L54.195 113.103V112.35L52.1856 111.848Z" fill="white"/>
<path d="M28.4621 113.342C22.669 120.898 13.3498 121.905 11.5867 131.224L11.083 138.277H36.7738L35.0107 132.987L28.4621 113.342Z" fill="#3F8ABC"/>
<path d="M47.3513 138.277H72.0346L71.5309 131.224C70.2715 124.928 63.2191 121.905 53.8999 113.594L48.3588 133.491L47.3513 138.277Z" fill="#3F8ABC"/>
<path d="M48.1077 102.511H46.0928H35.2623C32.9955 102.511 31.2324 104.022 31.2324 106.037V115.105C31.2324 117.12 32.9955 118.631 35.2623 118.631H48.1077C50.1227 118.631 51.6339 117.372 52.1377 115.86V115.105V114.853V105.786C52.1377 104.022 50.3746 102.511 48.1077 102.511Z" fill="#FFE2C2"/>
<path d="M60.7002 85.636C60.1965 85.3842 59.6927 85.8879 59.189 86.6435C59.189 86.3917 59.189 85.8879 59.189 85.636C59.189 74.3019 51.381 64.9827 41.8099 64.9827C32.2389 64.9827 24.4309 74.3019 24.4309 85.636C24.4309 85.8879 24.4309 86.3917 24.4309 86.6435C23.9271 85.8879 23.4234 85.636 22.9197 85.636C21.6603 86.1398 21.4084 89.1622 22.164 92.6884C22.9197 96.2146 24.4309 98.7333 25.6902 98.4814C26.194 98.2296 26.4458 97.9777 26.6977 97.2221C29.7202 105.786 35.2613 113.594 41.8099 113.594C48.3586 113.594 54.1516 105.786 56.9222 97.2221C57.174 97.9777 57.4259 98.4814 57.9296 98.4814C59.189 98.7333 60.7002 96.2146 61.4558 92.6884C62.2114 89.1622 61.9596 86.1398 60.7002 85.636Z" fill="#FFE2C2"/>
<path d="M30.9804 112.586C30.9804 112.586 31.2323 115.86 37.2771 117.623C43.0702 119.386 39.2921 123.416 39.2921 123.416L34.7584 124.424L31.9879 119.135L30.7285 115.105L30.9804 112.586Z" fill="white"/>
<path d="M52.3891 113.09C52.3891 113.09 52.1373 116.364 46.0924 118.127C40.2994 119.89 44.0774 123.92 44.0774 123.92L48.6111 124.928L51.3817 119.638L52.641 115.609L52.3891 113.09Z" fill="white"/>
<path d="M29.4691 112.082L23.1724 115.86L35.0103 132.988L29.4691 112.082Z" fill="white" fill-opacity="0.47"/>
<path d="M54.1524 111.831L60.701 116.868L48.3594 133.24L54.1524 111.831Z" fill="white" fill-opacity="0.47"/>
<path d="M40.5738 125.142L37.4438 137.951H46.3121L42.6605 125.142H40.5738Z" fill="#3F8ABC"/>
<path d="M39.2921 118.379L44.5814 118.631L45.337 122.409L44.3296 126.187H39.544L38.2847 122.661L39.2921 118.379Z" fill="#3F8ABC"/>
<path d="M23.1727 101.504C19.6465 95.7108 18.3872 89.4141 19.1428 84.3766C20.654 76.8205 23.6764 70.7757 28.462 66.7457C29.2176 61.7083 32.24 58.9377 38.033 58.9377C52.8934 59.9452 60.9532 68.7607 63.9757 82.8654C64.9832 87.9028 63.7238 94.1996 59.9458 99.9926C55.9158 107.801 58.4345 113.594 62.2126 121.653C52.6415 118.631 46.3448 115.357 48.3597 111.327C53.649 99.237 59.442 88.4066 51.8859 78.3318C49.3672 78.3318 38.033 86.3916 31.2325 80.5986C24.432 90.6734 29.9732 101.252 35.0106 112.838C37.0256 116.868 30.7288 120.142 21.1577 123.165C24.9358 115.105 27.2026 109.06 23.1727 101.504Z" fill="#D1AB86"/>
<path d="M167.997 111.579L145.581 111.327L143.062 112.082L142.307 112.334V113.09L149.359 132.484L151.374 137.773H162.96L163.967 132.988L170.012 113.09L170.264 112.334L167.997 111.579Z" fill="white"/>
<path d="M142.307 113.09C131.728 115.105 123.417 119.89 123.417 127.698L122.661 137.773H151.374L149.359 132.484L142.307 113.09Z" fill="#3F8ABC"/>
<path d="M162.96 137.773H190.666L189.911 127.698C189.911 120.394 181.095 115.357 170.013 113.09L163.968 132.988L162.96 137.773Z" fill="#3F8ABC"/>
<path d="M163.716 102.763H161.449H149.611C147.093 102.763 145.33 104.274 145.33 106.289V115.105C145.33 116.868 147.345 118.631 149.611 118.631H163.716C165.731 118.631 167.494 117.372 167.998 115.86V115.105V114.853V106.289C167.998 104.274 165.983 102.763 163.716 102.763Z" fill="#FFE2C2"/>
<path d="M177.066 86.6434C176.562 86.3915 175.806 86.8952 175.303 87.6508C175.303 87.399 175.303 86.8952 175.303 86.6434C175.303 75.5611 166.991 66.7456 156.664 66.7456C146.337 66.7456 138.026 75.5611 138.026 86.6434C138.026 86.8952 138.026 87.399 138.026 87.6508C137.522 86.8952 136.766 86.6434 136.263 86.6434C135.003 86.8952 134.5 90.1695 135.255 93.4439C136.011 96.97 137.774 99.2369 139.033 98.985C139.537 98.7331 139.789 98.4813 140.041 97.7256C143.315 106.037 149.36 113.342 156.412 113.342C163.465 113.342 169.761 105.785 172.784 97.7256C173.036 98.4813 173.288 98.985 173.791 98.985C175.051 99.2369 176.814 96.97 177.569 93.4439C178.829 90.1695 178.577 87.1471 177.066 86.6434Z" fill="#FFE2C2"/>
<path d="M145.077 112.082C145.077 112.082 145.329 115.357 151.878 117.12C158.175 118.883 153.893 122.913 153.893 122.913L148.855 123.92L146.085 118.631L144.825 114.601L145.077 112.082Z" fill="white"/>
<path d="M168.249 112.838C168.249 112.838 167.997 116.112 161.449 117.875C155.152 119.638 159.434 123.668 159.434 123.668L164.471 124.676L167.494 119.387L168.753 115.357L168.249 112.838Z" fill="white"/>
<path d="M143.315 110.823L137.522 113.342L149.36 132.484L143.315 110.823Z" fill="white" fill-opacity="0.47"/>
<path d="M170.265 111.075L175.806 113.846L163.969 132.988L170.265 111.075Z" fill="white" fill-opacity="0.47"/>
<path d="M155.908 125.431L152.885 137.773H161.449L157.923 125.431H155.908Z" fill="#3F8ABC"/>
<path d="M154.397 118.127H159.435L160.442 121.905L159.435 125.935H154.397L153.39 122.157L154.397 118.127Z" fill="#3F8ABC"/>
<path d="M168.25 70.7756C170.769 58.434 133.492 58.9377 138.026 87.651L140.293 97.7258C140.293 97.7258 154.649 89.4141 165.228 76.0649C169.258 77.828 171.273 81.1023 172.028 89.1622L173.036 97.7258L175.302 87.651C175.302 87.651 178.577 66.9976 168.25 70.7756Z" fill="#D1AB86"/>
<path d="M97.725 145.077L75.8123 110.068L87.1464 101.504L115.608 103.519L126.438 113.594L102.007 147.344C100.747 146.589 99.2362 145.833 97.725 145.077Z" fill="white"/>
<path d="M118.126 105.785L126.438 107.8C126.438 107.8 139.284 109.815 141.55 113.342C145.832 116.112 146.084 149.611 145.328 149.863C144.573 150.115 105.533 149.863 105.533 149.863C104.022 148.855 102.51 147.848 100.999 147.092L118.126 105.785Z" fill="#3F8ABC"/>
<path d="M83.621 105.785L75.5611 107.8C75.5611 107.8 62.7158 109.815 60.4489 113.342C56.1671 116.112 55.9153 149.611 56.6709 149.863C57.4265 150.115 107.801 149.863 107.801 149.863C109.312 148.855 104.022 148.351 101 147.092L83.621 105.785Z" fill="#3F8ABC"/>
<path d="M113.593 87.9028H88.1545V107.801H113.593V87.9028Z" fill="#FFE2C2"/>
<path d="M80.3469 75.0572C81.8581 90.4212 93.4442 101.755 101 101.755C108.808 101.755 119.639 89.9175 121.654 75.0572C123.417 60.4487 112.334 52.8926 101 52.8926C89.4142 53.1444 78.8357 60.4487 80.3469 75.0572Z" fill="#FFE2C2"/>
<path d="M122.157 59.9451C120.394 54.152 114.852 47.3516 107.8 45.5885C101.755 44.0772 91.1767 42.3141 81.8575 51.6333C80.5981 52.8927 78.0794 62.4638 78.3313 64.9825C79.3388 74.8054 80.3463 77.3241 80.3463 77.3241L82.865 78.3316C82.865 78.3316 81.6056 75.0573 83.3687 70.2717C83.8724 69.0124 84.3762 67.753 85.1318 66.7456C91.1767 70.0199 102.763 66.4937 109.815 67.2493C114.852 68.0049 115.86 73.5461 118.882 73.7979C119.134 76.3166 118.631 78.0797 118.631 78.0797L121.149 77.0722C121.149 77.0722 121.401 76.3166 121.905 73.7979C122.409 73.7979 122.912 73.7979 122.912 73.7979C122.912 73.7979 124.172 66.9974 122.157 59.9451Z" fill="#D1AB86"/>
<path d="M119.639 77.5759C118.631 80.5983 117.624 83.6208 119.135 84.1245C120.394 84.6282 123.165 82.3614 124.424 79.339C125.432 76.3165 125.432 73.2941 124.172 73.0422C122.661 72.2866 120.646 74.5534 119.639 77.5759Z" fill="#FFE2C2"/>
<path d="M82.1092 77.5759C83.1167 80.5983 84.1242 83.6208 82.613 84.1245C81.3536 84.6282 78.583 82.3614 77.3237 79.339C76.3162 76.3165 76.3162 73.2941 77.5755 73.0422C79.0868 72.2866 81.1017 74.5534 82.1092 77.5759Z" fill="#FFE2C2"/>
<path d="M94.4514 111.075L100.748 116.364L107.297 111.075L100.748 105.785L94.4514 111.075Z" fill="#3F8ABC"/>
<path d="M102.008 115.104L105.786 133.491L101.252 148.855L95.4595 133.491L99.7413 115.104H102.008Z" fill="#3F8ABC"/>
<path d="M114.601 97.7258L100.748 105.786L105.282 115.357L115.86 105.534C115.86 105.534 118.631 104.778 117.623 103.519C116.868 102.259 114.601 101 114.601 97.7258Z" fill="white"/>
<path d="M87.1477 97.7258L100.749 105.786L96.2151 115.357L85.6365 105.282C85.6365 105.282 82.8659 104.526 83.8734 103.267C84.8809 102.259 87.1477 101 87.1477 97.7258Z" fill="white"/>
<path d="M100.748 146.84L116.364 102.008L121.653 106.289L127.194 109.312L120.394 120.394H117.371L119.386 126.943L100.748 146.84Z" fill="white" fill-opacity="0.47"/>
<path d="M100.749 146.84L85.3847 102.008L80.0954 106.037L74.0505 109.312L81.3548 120.394H84.3772L82.3623 126.943L100.749 146.84Z" fill="white" fill-opacity="0.47"/>
</svg>
