<svg width="202" height="202" viewBox="0 0 202 202" fill="none" xmlns="http://www.w3.org/2000/svg">
<g clip-path="url(#clip0)">
<path d="M202.007 100.905C202.007 45.1232 156.787 -0.0964947 101.006 -0.0964918C45.2244 -0.0964889 0.00463195 45.1233 0.00463434 100.905C0.00463673 156.686 45.2244 201.906 101.006 201.906C156.787 201.906 202.007 156.686 202.007 100.905Z" fill="white" fill-opacity="0.47"/>
<path d="M51.8859 150.366C48.6116 158.678 54.6565 164.471 61.2051 164.975C67.7537 165.479 73.5467 157.922 71.2799 151.122C68.7612 144.321 68.2575 144.825 68.2575 144.825C68.2575 144.825 69.0131 143.818 70.0206 142.81C71.028 141.551 71.028 139.536 70.0206 138.277L68.2575 135.758C68.2575 135.758 69.2649 134.75 70.2724 133.491C71.2799 132.232 71.5318 130.217 70.2724 128.957L68.2575 126.691C68.2575 126.691 69.0131 125.683 69.7687 124.424C70.5243 123.164 70.2724 121.149 69.0131 119.89L66.7462 117.623L65.7388 105.785L50.1228 105.282C50.6265 105.03 55.4121 141.803 51.8859 150.366Z" fill="#3F8ABC"/>
<path d="M142.81 53.6483L170.768 44.3291V145.329L146.085 136.262L141.047 124.424L142.81 53.6483Z" fill="#3F8ABC"/>
<path d="M154.397 145.329L61.7089 108.052L61.457 83.6208L154.397 44.0771V145.329Z" fill="white"/>
<path d="M49.8701 95.7108C49.8701 103.519 43.5733 109.564 36.0172 109.564C28.2092 109.564 22.1643 103.267 22.1643 95.7108C22.1643 87.9028 28.4611 81.8579 36.0172 81.8579C43.5733 81.8579 49.8701 87.9028 49.8701 95.7108Z" fill="white"/>
<path d="M68.2573 80.5984H27.4543V110.823H68.2573V80.5984Z" fill="#3F8ABC"/>
<path d="M68.2573 101H27.4543V110.823H68.2573V101Z" fill="#3F8ABC"/>
<path d="M61.4563 104.526H50.374V107.045H61.4563V104.526Z" fill="#F2F2F2"/>
<path d="M38.5357 85.8876C38.5357 87.147 37.5282 88.4063 36.017 88.4063C34.7576 88.4063 33.4983 87.3988 33.4983 85.8876C33.4983 84.6282 34.5058 83.3689 36.017 83.3689C37.2763 83.3689 38.5357 84.3764 38.5357 85.8876Z" fill="white"/>
<path d="M60.1965 164.975C65.2339 141.299 59.9446 129.21 52.3885 122.913C53.1441 133.491 53.8997 146.085 52.1366 150.367C48.8623 158.175 53.8997 163.716 60.1965 164.975Z" fill="white"/>
<path d="M154.396 139.284L160.441 141.551V47.8552L154.396 49.8702V139.284Z" fill="#3F8ABC"/>
</g>
<defs>
<clipPath id="clip0">
<rect width="202" height="202" fill="white"/>
</clipPath>
</defs>
</svg>
